
Complete name                    : Madagascar.2005.Dual.Audio.Hindi-Eng.720p.Bluray.DjVikas.mkv
Format                           : Matroska
File size                        : 1.84 GiB
Duration                         : 1h 22mn
Overall bit rate                 : 3 194 Kbps
Movie name                       : Madagascar.2005.Dual.Audio.Hindi-Eng.720p.Bluray.DjVikas
Encoded date                     : UTC 2010-11-18 16:23:46
Writing application              : mkvmerge v4.2.0 ('No Talking') built on Jul 28 2010 18:38:23
Writing library                  : libebml v1.0.0 + libmatroska v1.0.0

Video
ID                               : 1
Format                           : AVC
Format/Info                      : Advanced Video Codec
Format profile                   : High@L4.1
Format settings, CABAC           : Yes
Format settings, ReFrames        : 4 frames
Muxing mode                      : Header stripping
Codec ID                         : V_MPEG4/ISO/AVC
Duration                         : 1h 22mn
Bit rate                         : 2 491 Kbps
Width                            : 1 280 pixels
Height                           : 720 pixels
Display aspect ratio             : 16:9
Frame rate                       : 25.000 fps
Original frame rate              : 23.976 fps
Color space                      : YUV
Chroma subsampling               : 4:2:0
Bit depth                        : 8 bits
Scan type                        : Progressive
Bits/(Pixel*Frame)               : 0.108
Stream size                      : 1.43 GiB (78%)
Writing library                  : x264 core 77 r1292kGIT e381f6d
Language                         : English

Audio #1
ID                               : 2
Format                           : AC-3
Format/Info                      : Audio Coding 3
Mode extension                   : CM (complete main)
Muxing mode                      : Header stripping
Codec ID                         : A_AC3
Duration                         : 1h 22mn
Bit rate mode                    : Constant
Bit rate                         : 256 Kbps
Channel(s)                       : 2 channels
Channel positions                : Front: L R
Sampling rate                    : 48.0 KHz
Bit depth                        : 16 bits
Compression mode                 : Lossy
Delay relative to video          : 2s 250ms
Stream size                      : 151 MiB (8%)
Title                            : Hindi_DjVikas
Language                         : Hindi

Audio #2
ID                               : 3
Format                           : AC-3
Format/Info                      : Audio Coding 3
Mode extension                   : CM (complete main)
Muxing mode                      : Header stripping
Codec ID                         : A_AC3
Duration                         : 1h 22mn
Bit rate mode                    : Constant
Bit rate                         : 384 Kbps
Channel(s)                       : 6 channels
Channel positions                : Front: L C R, Side: L R, LFE
Sampling rate                    : 48.0 KHz
Bit depth                        : 16 bits
Compression mode                 : Lossy
Delay relative to video          : 2s 250ms
Stream size                      : 226 MiB (12%)
Title                            : English_DjVikas
Language                         : English
[/b]

[img]http://img685.imageshack.us/img685/1050/hddesirockers.png[/img]

[URL=http://imgchili.com/show/96/96082_madagascar.2005.dual.jpg][IMG]http://t1.imgchili.com/96/96082_madagascar.2005.dual.jpg[/IMG][/URL] [URL=http://imgchili.com/show/96/96084_madagascar.2005.dual.jpg][IMG]http://t1.imgchili.com/96/96084_madagascar.2005.dual.jpg[/IMG][/URL] [URL=http://imgchili.com/show/96/96090_madagascar.2005.dual.jpg][IMG]http://t1.imgchili.com/96/96090_madagascar.2005.dual.jpg[/IMG][/URL] [URL=http://imgchili.com/show/96/96092_madagascar.2005.dual.jpg][IMG]http://t1.imgchili.com/96/96092_madagascar.2005.dual.jpg[/IMG][/URL] [URL=http://imgchili.com/show/96/96093_madagascar.2005.dual.jpg][IMG]http://t1.imgchili.com/96/96093_madagascar.2005.dual.jpg[/IMG][/URL] [URL=http://imgchili.com/show/96/96094_madagascar.2005.dual.jpg][IMG]http://t1.imgchili.com/96/96094_madagascar.2005.dual.jpg[/IMG][/URL] [URL=http://imgchili.com/show/96/96097_madagascar.2005.dual.jpg][IMG]http://t1.imgchili.com/96/96097_madagascar.2005.dual.jpg[/IMG][/URL] [URL=http://imgchili.com/show/96/96099_madagascar.2005.dual.jpg][IMG]http://t1.imgchili.com/96/96099_madagascar.2005.dual.jpg[/IMG][/URL] [URL=http://imgchili.com/show/96/96101_madagascar.2005.dual.jpg][IMG]http://t1.imgchili.com/96/96101_madagascar.2005.dual.jpg[/IMG][/URL] [URL=http://imgchili.com/show/96/96104_madagascar.2005.dual.jpg][IMG]http://t1.imgchili.com/96/96104_madagascar.2005.dual.jpg[/IMG][/URL] [URL=http://imgchili.com/show/96/96106_madagascar.2005.dual.jpg][IMG]http://t1.imgchili.com/96/96106_madagascar.2005.dual.jpg[/IMG][/URL]
